<svg version="1.1" id="Layer_1" xmlns="http://www.w3.org/2000/svg" xmlns:xlink="http://www.w3.org/1999/xlink" x="0px" y="0px"
	 width="100%" viewBox="0 0 2048 2048" enable-background="new 0 0 2048 2048" xml:space="preserve">
<path fill="#000000" opacity="1.000000" stroke="none" 
	d="
M1145.000000,2049.000000 
	C763.333313,2049.000000 382.166656,2049.000000 1.000000,2049.000000 
	C1.000000,1366.333374 1.000000,683.666687 1.000000,1.000000 
	C683.666687,1.000000 1366.333374,1.000000 2049.000000,1.000000 
	C2049.000000,683.666687 2049.000000,1366.333374 2049.000000,2049.000000 
	C1747.833374,2049.000000 1446.666626,2049.000000 1145.000000,2049.000000 
M1612.999512,964.096008 
	C1612.999512,919.465759 1612.999512,874.835510 1612.999512,830.205200 
	C1612.663086,830.205811 1612.326660,830.206360 1611.990234,830.206909 
	C1611.990234,875.129517 1611.990234,920.052063 1611.982422,965.915222 
	C1611.982422,1007.192200 1611.982422,1048.469116 1611.982422,1089.746094 
	C1612.316040,1089.750610 1612.649658,1089.755127 1612.983276,1089.759766 
	C1612.983276,1048.186890 1612.983276,1006.614136 1612.999512,964.096008 
M1137.728271,1158.997314 
	C1200.312866,1158.997314 1262.897583,1158.997314 1325.482178,1158.997314 
	C1325.516113,1158.446045 1325.549927,1157.894653 1325.583740,1157.343384 
	C1323.904663,1157.222168 1322.225464,1156.995117 1320.546387,1156.995117 
	C1261.099365,1156.991333 1201.652222,1157.000977 1142.205200,1157.061890 
	C1140.472290,1157.063721 1138.739746,1157.639526 1136.068726,1157.967529 
	C1122.892822,1157.918213 1109.716919,1157.868896 1095.631470,1157.364624 
	C1094.308350,1157.257080 1092.985229,1157.055542 1091.662109,1157.055664 
	C1024.726318,1157.060425 957.790588,1157.080566 890.854797,1157.119141 
	C889.877502,1157.119751 888.900330,1157.373291 887.923096,1157.508789 
	C887.970520,1158.005737 888.018005,1158.502808 888.065430,1158.999756 
	C957.038879,1158.999756 1026.012329,1158.999756 1095.345825,1159.652222 
	C1101.553467,1162.044189 1107.800903,1165.033813 1114.584106,1163.922485 
	C1122.064209,1162.697266 1129.391113,1160.537109 1137.728271,1158.997314 
M1604.967896,722.500000 
	C1604.935303,641.565552 1604.938721,560.630981 1604.784424,479.696716 
	C1604.774658,474.596008 1604.059082,469.359222 1602.759399,464.426208 
	C1599.838623,453.341766 1591.512573,446.201935 1580.928467,445.354614 
	C1577.494019,445.079681 1573.984253,445.939911 1570.511963,445.911377 
	C1551.039062,445.751465 1531.567505,445.384583 1512.094482,445.281982 
	C1501.622925,445.226807 1491.149658,445.668579 1480.676514,445.699371 
	C1358.689209,446.058228 1236.701904,446.358856 1114.714722,446.721039 
	C1009.893555,447.032227 905.072632,447.433746 800.251404,447.735931 
	C737.423645,447.917084 674.588928,447.457458 611.769531,448.250763 
	C549.118164,449.041931 486.408173,446.349487 423.822266,451.062988 
	C419.952850,451.354401 415.832245,452.199554 412.414001,453.938232 
	C395.066010,462.761841 387.508453,477.763336 387.151184,496.624268 
	C386.930664,508.264618 387.788239,519.922607 387.686554,531.568542 
	C387.337250,571.560608 386.696991,611.550110 386.316193,651.542053 
	C385.488007,738.526611 384.767365,825.512268 383.972504,912.497192 
	C383.326935,983.142639 382.651672,1053.787842 381.948425,1124.432617 
	C381.862793,1133.035767 385.357300,1139.963623 392.701477,1143.954102 
	C398.108643,1146.892090 404.354248,1149.409668 410.387756,1149.837891 
	C422.814606,1150.719482 435.349518,1150.076416 447.839966,1150.062988 
	C680.810120,1149.813477 913.780212,1149.563110 1146.750366,1149.315796 
	C1254.741577,1149.201172 1362.732666,1149.011597 1470.723877,1149.035156 
	C1499.501465,1149.041504 1528.283813,1149.488647 1557.054810,1150.138794 
	C1582.649536,1150.717163 1602.616821,1133.112427 1603.352295,1108.524780 
	C1603.681763,1097.508667 1603.790039,1086.483398 1603.826172,1075.461670 
	C1603.941772,1040.132080 1603.931519,1004.802002 1604.051880,969.472534 
	C1604.331421,887.481567 1604.658936,805.490845 1604.967896,722.500000 
M956.127625,1489.518921 
	C950.793701,1506.273560 945.396179,1523.008667 940.208801,1539.808594 
	C939.581055,1541.841553 939.222595,1544.784302 940.229370,1546.342896 
	C943.459412,1551.343872 946.915039,1556.372559 951.128418,1560.535645 
	C972.195740,1581.351807 998.007996,1594.232544 1025.618408,1603.826294 
	C1041.833130,1609.460693 1058.361694,1614.065308 1075.775391,1613.074707 
	C1080.648438,1612.797363 1085.692505,1611.693237 1090.202393,1609.851929 
	C1095.725586,1607.597046 1097.587036,1603.073242 1095.292114,1597.533081 
	C1093.292725,1592.706421 1090.641235,1587.843140 1087.179077,1583.981079 
	C1070.242065,1565.088501 1048.428101,1553.281128 1025.617432,1543.202759 
	C1021.811218,1541.520996 1017.185608,1541.526367 1012.903625,1541.148193 
	C1010.116028,1540.901978 1008.789734,1539.864746 1009.381958,1537.119263 
	C1009.800476,1535.179321 1010.569641,1533.310669 1011.236511,1531.429443 
	C1021.152832,1503.456421 1026.086670,1474.537720 1026.729492,1444.957520 
	C1027.900513,1391.071655 1016.354431,1339.836792 992.871155,1291.396606 
	C966.894287,1237.813110 929.904053,1193.606812 879.702332,1161.005371 
	C876.974976,1159.234131 873.292664,1158.105103 870.047241,1158.087646 
	C835.382202,1157.899902 800.715637,1158.000366 766.049500,1158.014648 
	C747.434631,1158.022217 728.819763,1158.015991 710.204834,1158.015991 
	C734.758972,1163.247559 758.917419,1169.603271 782.239197,1178.895386 
	C836.560791,1200.538940 882.476501,1233.288940 916.613220,1281.319702 
	C944.909668,1321.132935 960.104126,1365.670044 962.777161,1414.385742 
	C964.150757,1439.420166 961.931946,1464.228394 956.127625,1489.518921 
M1501.840210,1324.745239 
	C1529.273438,1408.111206 1523.828369,1490.058838 1491.149414,1570.848633 
	C1493.824707,1573.817261 1495.984741,1577.555542 1499.220581,1579.539185 
	C1507.111938,1584.376709 1515.160767,1589.299316 1523.762451,1592.564087 
	C1540.961548,1599.092285 1559.080566,1601.539917 1577.456055,1602.305054 
	C1596.572388,1603.100830 1615.515381,1601.932129 1633.698608,1595.847046 
	C1640.759399,1593.484131 1647.567871,1589.401611 1653.459473,1584.785645 
	C1659.182861,1580.301636 1659.345337,1573.996094 1654.636597,1568.416992 
	C1651.270752,1564.428955 1647.107300,1560.758179 1642.603027,1558.148315 
	C1622.859375,1546.708130 1600.949585,1542.486328 1578.570068,1541.252441 
	C1569.783325,1540.768066 1567.228516,1535.848999 1569.187744,1528.293701 
	C1576.404541,1500.464478 1579.187866,1472.036865 1579.643066,1443.399292 
	C1580.054077,1417.547852 1578.061279,1391.804932 1573.977783,1366.257935 
	C1566.060547,1316.726685 1551.754883,1269.343262 1525.915283,1225.975586 
	C1511.615356,1201.975098 1494.183960,1180.735596 1470.426880,1165.290161 
	C1467.752930,1163.551758 1465.680664,1160.887695 1462.854980,1158.201904 
	C1424.659424,1158.201904 1385.392944,1158.201904 1344.791992,1158.201904 
	C1347.763916,1159.456421 1349.432129,1160.179199 1351.114258,1160.867798 
	C1377.876343,1171.819824 1402.056274,1186.935669 1423.647217,1206.143066 
	C1460.044922,1238.522705 1485.335205,1278.278198 1501.840210,1324.745239 
M1852.700317,1153.834595 
	C1851.744629,1145.757324 1851.279785,1137.585571 1849.744629,1129.619995 
	C1844.295654,1101.343506 1835.814941,1073.927856 1825.593872,1047.021729 
	C1806.458984,996.651489 1782.670166,948.549438 1755.068848,902.321655 
	C1730.511963,861.192566 1703.604248,821.750671 1670.527344,786.850220 
	C1659.396362,775.105530 1647.562622,764.153320 1633.695435,755.633423 
	C1627.458740,751.801453 1620.880493,748.817749 1613.325806,747.934631 
	C1613.153076,748.984253 1612.959595,749.624084 1612.954956,750.265137 
	C1612.796265,772.596619 1612.620483,794.928040 1612.593262,817.259705 
	C1612.591553,818.686951 1613.431763,820.419861 1614.433105,821.496521 
	C1624.176270,831.973206 1634.661377,841.824890 1643.754272,852.830139 
	C1677.975220,894.247864 1705.247070,940.193726 1729.435913,987.970520 
	C1754.943237,1038.351318 1777.578369,1089.929810 1788.561768,1145.750488 
	C1790.667603,1156.453125 1792.584229,1167.750977 1791.362061,1178.404175 
	C1789.951904,1190.697021 1798.167603,1203.056641 1806.546509,1207.530884 
	C1820.348999,1214.901611 1838.358032,1210.605835 1843.901367,1197.974976 
	C1849.914673,1184.273682 1854.386597,1170.109009 1852.700317,1153.834595 
M325.652100,910.185547 
	C332.407257,895.031616 338.866913,879.736877 345.999603,864.762756 
	C353.300293,849.436035 361.578705,834.576416 373.155090,821.979309 
	C376.190887,818.675720 376.945129,815.459839 376.963501,811.310242 
	C377.058594,789.819946 377.378723,768.330750 377.605072,746.841003 
	C377.716675,736.245422 375.488708,734.730530 365.158447,738.375305 
	C363.909790,738.815918 362.710693,739.410706 361.517853,739.993774 
	C346.023865,747.567810 335.527435,760.544800 325.419861,773.814453 
	C301.464294,805.264221 284.370819,840.586426 269.427704,876.855530 
	C237.993271,953.151428 215.919266,1032.016113 206.747879,1114.265991 
	C203.710556,1141.505005 202.713318,1168.735352 206.258423,1195.924927 
	C207.638550,1206.509766 213.933548,1216.125488 224.347244,1216.686523 
	C230.953278,1217.042236 238.090530,1216.273438 244.271591,1214.030396 
	C258.799957,1208.758301 263.728363,1200.809326 262.805420,1185.540649 
	C261.603607,1165.658936 262.946899,1145.868896 266.410034,1126.422852 
	C271.759247,1096.386353 277.762512,1066.420044 284.861481,1036.752441 
	C295.136749,993.810486 309.070190,951.946533 325.652100,910.185547 
M289.204102,1237.656250 
	C292.012085,1240.308105 295.785767,1242.681030 298.917480,1240.349609 
	C301.339050,1238.546997 301.951508,1234.294312 303.307648,1231.104980 
	C303.484283,1230.689575 303.321259,1230.118164 303.278046,1229.622314 
	C302.190399,1217.147217 296.851715,1206.784546 287.719452,1198.302490 
	C279.144409,1190.338135 270.045929,1194.096436 265.445618,1204.679688 
	C276.592987,1205.305542 283.706451,1211.442871 286.986816,1221.651978 
	C288.523438,1226.434204 288.396851,1231.750854 289.204102,1237.656250 
M1777.225098,1244.976318 
	C1778.226807,1247.425415 1779.002319,1250.002197 1780.292114,1252.288818 
	C1781.671143,1254.733765 1783.890625,1256.723145 1786.828003,1254.911011 
	C1790.006348,1252.950317 1793.782104,1250.368164 1792.454834,1246.094360 
	C1788.345825,1232.864258 1790.130493,1220.343628 1795.686279,1207.841431 
	C1793.407837,1205.084229 1791.014526,1202.187988 1787.595215,1198.050171 
	C1784.501221,1203.720337 1781.148926,1208.465820 1779.203613,1213.731079 
	C1775.575928,1223.551025 1775.155029,1233.829224 1777.225098,1244.976318 
M1873.063843,1242.384155 
	C1875.895142,1243.789551 1878.726562,1245.194946 1881.557861,1246.600464 
	C1882.743774,1243.520386 1884.992065,1240.421631 1884.937744,1237.363525 
	C1884.655151,1221.419800 1878.310669,1207.927856 1867.647705,1196.106323 
	C1862.705688,1190.627563 1858.124512,1193.666382 1853.502197,1195.527832 
	C1851.926147,1196.162476 1851.096069,1198.649536 1849.601807,1200.743164 
	C1858.142334,1201.329956 1863.456909,1205.597900 1867.627686,1211.502686 
	C1874.169678,1220.764648 1875.430176,1230.964355 1873.063843,1242.384155 
M212.948074,1255.571533 
	C209.871094,1243.337036 206.394043,1231.083374 214.590820,1219.823364 
	C211.650345,1216.636841 208.888870,1213.644287 205.993195,1210.506226 
	C201.811493,1214.542969 200.539047,1220.210449 199.581604,1225.912842 
	C197.604645,1237.687622 197.340317,1249.382324 202.936218,1260.405151 
	C205.368057,1265.195435 208.509872,1265.340942 211.419281,1260.936768 
	C212.286880,1259.623413 212.548416,1257.909790 212.948074,1255.571533 
M1841.924438,1218.649902 
	C1837.008911,1213.416748 1836.497681,1213.383789 1828.480103,1217.813843 
	C1829.527344,1219.318237 1830.720337,1220.736450 1831.589966,1222.330933 
	C1835.865601,1230.171753 1839.423950,1238.194458 1836.765625,1247.467163 
	C1835.754150,1250.995483 1838.845581,1257.338379 1842.259277,1257.702026 
	C1847.032837,1258.210449 1847.245605,1253.869995 1847.834351,1250.922485 
	C1850.070435,1239.728271 1848.036133,1229.137207 1841.924438,1218.649902 
M376.984161,559.499939 
	C377.114929,609.824646 377.274292,660.149231 377.341187,710.474060 
	C377.349792,716.943787 379.012115,723.641785 375.491608,729.487000 
	C371.961578,730.091248 368.626770,730.662109 365.291962,731.232910 
	C365.348297,731.639282 365.404663,732.045593 365.460999,732.451965 
	C367.314484,732.209351 369.161835,731.861389 371.023132,731.752319 
	C373.109039,731.630127 375.207642,731.724182 377.579376,731.724182 
	C378.326843,656.290710 379.070618,581.230835 379.814392,506.170990 
	C378.917358,506.157196 378.020294,506.143372 377.123230,506.129547 
	C377.071198,523.586365 377.019165,541.043213 376.984161,559.499939 
M256.846832,1229.894653 
	C255.513107,1226.521606 254.345718,1223.066162 252.743607,1219.825928 
	C252.267639,1218.863403 250.354568,1217.748657 249.468628,1218.000488 
	C245.548828,1219.114624 241.763321,1220.701294 237.660461,1222.216187 
	C238.856476,1223.496704 239.953201,1224.495361 240.843307,1225.652832 
	C245.965790,1232.314453 249.229828,1239.525879 246.968170,1248.180420 
	C245.959290,1252.041016 247.556519,1255.972290 250.952652,1256.636230 
	C254.921204,1257.412109 256.593567,1254.232056 256.785980,1251.382202 
	C257.248810,1244.526978 256.935638,1237.619507 256.846832,1229.894653 
M276.304565,1097.725342 
	C271.142181,1129.128418 265.389587,1160.488159 269.486847,1192.573975 
	C270.209412,1169.516968 271.626709,1146.511475 275.052063,1123.690918 
	C278.462982,1100.966797 282.170868,1078.287354 285.748535,1055.588257 
	C285.596893,1055.560669 285.445251,1055.533081 285.293610,1055.505493 
	C282.377869,1069.304565 279.462158,1083.103638 276.304565,1097.725342 
M375.100830,960.500000 
	C375.100830,1001.220215 375.100830,1041.940430 375.100830,1082.660522 
	C374.958282,1082.661133 374.815765,1082.661621 374.673218,1082.662109 
	C375.494141,997.562134 376.315033,912.462219 377.135925,827.362305 
	C376.457336,827.359009 375.778778,827.355652 375.100189,827.352295 
	C375.100189,871.401550 375.100189,915.450745 375.100830,960.500000 
M673.454346,1157.955566 
	C609.409058,1157.955566 545.363770,1157.955566 481.318512,1157.955566 
	C481.319397,1158.222412 481.320312,1158.489258 481.321228,1158.756104 
	C548.636292,1158.756104 615.951355,1158.756104 683.266418,1158.756104 
	C683.273621,1158.488159 683.280884,1158.220215 683.288147,1157.952271 
	C680.336609,1157.952271 677.385132,1157.952271 673.454346,1157.955566 
M1784.996826,1167.574829 
	C1784.048218,1149.885254 1779.751953,1132.884033 1774.276489,1116.099243 
	C1779.443237,1139.583252 1783.496704,1163.180542 1781.780518,1187.434937 
	C1782.480591,1187.445068 1783.180786,1187.455078 1783.880859,1187.465210 
	C1784.254517,1181.161133 1784.628174,1174.857056 1784.996826,1167.574829 
M1476.282593,1159.112671 
	C1499.004883,1159.112671 1521.727295,1159.112671 1544.449585,1159.112671 
	C1544.442017,1158.534302 1544.434326,1157.955811 1544.426758,1157.377441 
	C1519.899658,1157.377441 1495.372681,1157.377441 1470.845581,1157.377441 
	C1470.800049,1157.803223 1470.754639,1158.229126 1470.709106,1158.654907 
	C1472.301514,1158.887085 1473.894043,1159.119263 1476.282593,1159.112671 
M1511.029907,1453.700806 
	C1511.154419,1454.925903 1511.278931,1456.151001 1511.403442,1457.376099 
	C1511.532104,1457.382935 1511.660645,1457.389771 1511.789307,1457.396606 
	C1511.789307,1438.690063 1511.789307,1419.983521 1511.789307,1401.276978 
	C1511.524658,1401.280518 1511.259888,1401.284058 1510.995239,1401.287598 
	C1510.995239,1418.483887 1510.995239,1435.680054 1511.029907,1453.700806 
M1576.031738,1529.416382 
	C1575.744873,1530.815552 1575.457886,1532.214600 1575.116577,1533.878418 
	C1576.848145,1533.878418 1578.272095,1533.878418 1579.603760,1533.878418 
	C1579.603760,1527.884521 1579.603760,1522.089722 1579.603760,1516.294922 
	C1579.455688,1516.281250 1579.307495,1516.267578 1579.159424,1516.253906 
	C1578.222290,1520.384033 1577.285278,1524.514038 1576.031738,1529.416382 
M197.984924,1187.196289 
	C198.438110,1190.099487 198.891312,1193.002563 199.344498,1195.905762 
	C199.769150,1195.858276 200.193787,1195.810791 200.618423,1195.763306 
	C199.963669,1187.445435 199.308914,1179.127441 198.654175,1170.809570 
	C198.430099,1170.811768 198.206039,1170.814087 197.981979,1170.816406 
	C197.981979,1175.963257 197.981979,1181.110229 197.984924,1187.196289 
z"/>
<path fill="#9B9B9B" opacity="1.000000" stroke="none" 
	d="
M1604.967407,723.000000 
	C1604.658936,805.490845 1604.331421,887.481567 1604.051880,969.472534 
	C1603.931519,1004.802002 1603.941772,1040.132080 1603.826172,1075.461670 
	C1603.790039,1086.483398 1603.681763,1097.508667 1603.352295,1108.524780 
	C1602.616821,1133.112427 1582.649536,1150.717163 1557.054810,1150.138794 
	C1528.283813,1149.488647 1499.501465,1149.041504 1470.723877,1149.035156 
	C1362.732666,1149.011597 1254.741577,1149.201172 1146.750366,1149.315796 
	C913.780212,1149.563110 680.810120,1149.813477 447.839966,1150.062988 
	C435.349518,1150.076416 422.814606,1150.719482 410.387756,1149.837891 
	C404.354248,1149.409668 398.108643,1146.892090 392.701477,1143.954102 
	C385.357300,1139.963623 381.862793,1133.035767 381.948425,1124.432617 
	C382.651672,1053.787842 383.326935,983.142639 383.972504,912.497192 
	C384.767365,825.512268 385.488007,738.526611 386.316193,651.542053 
	C386.696991,611.550110 387.337250,571.560608 387.686554,531.568542 
	C387.788239,519.922607 386.930664,508.264618 387.151184,496.624268 
	C387.508453,477.763336 395.066010,462.761841 412.414001,453.938232 
	C415.832245,452.199554 419.952850,451.354401 423.822266,451.062988 
	C486.408173,446.349487 549.118164,449.041931 611.769531,448.250763 
	C674.588928,447.457458 737.423645,447.917084 800.251404,447.735931 
	C905.072632,447.433746 1009.893555,447.032227 1114.714722,446.721039 
	C1236.701904,446.358856 1358.689209,446.058228 1480.676514,445.699371 
	C1491.149658,445.668579 1501.622925,445.226807 1512.094482,445.281982 
	C1531.567505,445.384583 1551.039062,445.751465 1570.511963,445.911377 
	C1573.984253,445.939911 1577.494019,445.079681 1580.928467,445.354614 
	C1591.512573,446.201935 1599.838623,453.341766 1602.759399,464.426208 
	C1604.059082,469.359222 1604.774658,474.596008 1604.784424,479.696716 
	C1604.938721,560.630981 1604.935303,641.565552 1604.967407,723.000000 
M524.500854,570.976929 
	C519.501587,570.969482 514.500427,571.044983 509.503815,570.925537 
	C506.157806,570.845520 504.737061,572.108521 504.739349,575.621521 
	C504.745667,585.270569 504.395966,594.919250 504.310822,604.569153 
	C504.006531,639.047546 503.909424,673.528503 503.449524,708.004700 
	C502.409271,785.985291 501.114380,863.962463 500.103577,941.943420 
	C499.734375,970.427124 499.850922,998.917480 499.806915,1027.404907 
	C499.798126,1033.107300 501.717163,1035.177979 506.943665,1035.216064 
	C517.595886,1035.293823 528.249023,1035.243408 538.901794,1035.243042 
	C750.880859,1035.235840 962.859985,1035.147339 1174.838989,1035.257080 
	C1273.315796,1035.308105 1371.792358,1035.724121 1470.268677,1036.068481 
	C1474.895874,1036.084595 1475.973511,1033.865234 1475.889038,1029.912842 
	C1475.636963,1018.095642 1475.295288,1006.275757 1475.322998,994.457703 
	C1475.484497,925.466492 1475.722656,856.475403 1475.971680,787.484375 
	C1476.215332,720.007141 1476.495850,652.530029 1476.779297,585.052917 
	C1476.818237,575.781189 1475.875732,574.664551 1467.862915,574.657959 
	C1430.202271,574.627197 1392.541382,574.656921 1354.881104,574.510498 
	C1193.234985,573.882019 1031.588989,573.217041 869.943054,572.530090 
	C755.128784,572.042175 640.314697,571.498108 524.500854,570.976929 
M888.000000,483.501770 
	C888.000000,478.075409 888.000000,472.649017 888.000000,466.963287 
	C907.050232,466.963287 925.365723,466.946625 943.681152,466.976227 
	C947.720886,466.982758 949.800537,465.020599 949.989868,461.049774 
	C950.230713,455.999176 948.260925,453.074463 944.031860,453.054962 
	C921.201965,452.949738 898.370972,452.952484 875.541199,453.069550 
	C871.989746,453.087738 869.958008,454.993591 869.968201,459.028351 
	C870.050110,491.355164 870.016907,523.682312 869.983643,556.009338 
	C869.980347,559.250183 871.312622,561.002991 874.669739,561.002075 
	C895.833557,560.996155 916.999512,561.137817 938.157959,560.798950 
	C940.455933,560.762146 944.255066,558.324097 944.705933,556.383606 
	C946.317749,549.447021 943.998230,544.131348 935.799011,544.972534 
	C933.984680,545.158752 932.135620,545.009338 930.302551,545.009460 
	C916.351929,545.010315 902.401306,545.009888 888.424072,545.009888 
	C888.424072,536.479065 888.424072,528.434143 888.424072,520.000000 
	C890.698486,520.000000 892.506226,520.000061 894.313904,519.999939 
	C904.979248,519.999512 915.645935,519.896301 926.309204,520.045166 
	C931.082458,520.111755 933.726257,516.847473 934.466248,513.393372 
	C934.930664,511.225586 932.200195,508.069702 930.322144,505.848358 
	C929.535522,504.917999 927.244995,505.062164 925.636658,505.054779 
	C913.201721,504.997803 900.766357,505.023376 888.000000,505.023376 
	C888.000000,497.773132 888.000000,491.137207 888.000000,483.501770 
M629.000000,553.403931 
	C629.000183,555.070251 628.953003,556.738098 629.009033,558.402527 
	C629.223450,564.773926 632.543335,567.996643 638.870728,567.998596 
	C653.534058,568.003052 668.230957,568.590088 682.847168,567.760376 
	C690.591614,567.320740 698.893982,565.780762 705.702087,562.304443 
	C716.240723,556.923340 719.241150,535.348450 713.408020,524.177795 
	C710.991882,519.550842 706.650818,515.929016 702.840027,511.443939 
	C707.939331,501.934662 712.663391,492.020233 709.993896,479.699677 
	C706.638123,464.212036 699.043884,454.726685 682.490784,454.962250 
	C669.329773,455.149567 656.164001,454.996063 643.000305,455.001282 
	C632.111328,455.005585 629.004150,458.096283 629.001892,468.948853 
	C628.996094,496.775757 628.999939,524.602661 629.000000,553.403931 
M984.000000,464.628052 
	C984.002380,492.772400 984.001831,520.916748 984.008667,549.061096 
	C984.011108,559.361023 985.797974,561.085876 996.296265,561.002441 
	C999.290527,560.978638 1002.285095,560.970825 1005.279480,560.972046 
	C1019.931946,560.977966 1034.584839,561.048523 1049.236694,560.963867 
	C1053.798706,560.937500 1059.289185,557.236755 1058.620728,554.025940 
	C1058.054077,551.303406 1055.230469,548.851379 1052.952759,546.776978 
	C1051.963379,545.875854 1049.839478,546.035400 1048.229736,546.029663 
	C1034.073730,545.979248 1019.917419,546.008545 1005.761230,545.989380 
	C1003.992432,545.987000 1002.223755,545.840271 1000.373901,545.756714 
	C1000.373901,536.547546 1000.373901,527.849182 1000.373901,519.000000 
	C1002.604553,519.000000 1004.431213,519.000061 1006.257874,518.999939 
	C1016.914185,518.999329 1027.571167,519.064026 1038.226562,518.967407 
	C1042.864868,518.925415 1045.968628,515.695068 1046.086548,511.201691 
	C1046.189453,507.287567 1043.355347,504.293243 1038.937744,503.865509 
	C1037.126099,503.690125 1035.280396,503.880432 1033.450195,503.881165 
	C1022.370422,503.885651 1011.290710,503.883392 1000.390503,503.883392 
	C1000.390503,492.229950 1000.390503,481.176514 1000.390503,470.000153 
	C1018.949036,470.000153 1037.102051,470.146637 1055.246582,469.821045 
	C1057.605347,469.778717 1061.099731,467.855377 1062.037354,465.852631 
	C1064.996460,459.531433 1061.271973,455.041290 1053.539673,455.018921 
	C1033.227051,454.960175 1012.914246,454.999115 992.601501,455.000305 
	C984.002014,455.000824 984.002014,455.002167 984.000000,464.628052 
M1213.107910,500.734863 
	C1210.475220,519.022888 1214.017700,535.931213 1225.009155,550.900635 
	C1244.582031,577.556885 1279.394897,578.377686 1297.884888,552.789307 
	C1317.257690,525.979492 1310.782593,484.656097 1284.141235,465.078125 
	C1266.716309,452.273102 1242.985962,454.424225 1228.171021,469.941010 
	C1220.068115,478.427704 1215.552246,488.572998 1213.107910,500.734863 
M1182.694458,482.895203 
	C1177.828857,473.899353 1170.312500,467.798340 1161.297607,463.352661 
	C1146.845337,456.225739 1131.248291,456.730621 1115.801025,456.958710 
	C1109.591675,457.050354 1108.027466,459.841309 1107.993774,467.408752 
	C1107.864868,496.361816 1107.727173,525.314819 1107.641479,554.268005 
	C1107.628906,558.529846 1109.991211,560.973755 1114.100586,561.843018 
	C1117.942871,562.655640 1120.315430,560.633118 1121.284790,557.365906 
	C1122.528076,553.174805 1123.586548,548.825745 1123.896606,544.485657 
	C1124.332275,538.386963 1124.006714,532.233948 1124.006714,525.608704 
	C1126.259888,526.145569 1128.003052,526.584351 1129.756836,526.975037 
	C1143.154297,529.959412 1156.248169,529.498047 1168.683228,523.120056 
	C1184.413452,515.052063 1189.844360,499.897156 1182.694458,482.895203 
M789.500488,551.000122 
	C783.410889,551.000122 777.321350,551.000122 771.000000,551.000122 
	C771.000000,548.509216 770.999939,546.694641 771.000000,544.880066 
	C771.000244,517.908813 771.004761,490.937561 770.997253,463.966309 
	C770.995544,457.779968 768.419006,454.787384 763.155701,454.786255 
	C758.200928,454.785217 756.002625,457.577118 756.000244,463.946533 
	C755.988525,495.742126 756.042969,527.537964 755.916260,559.333069 
	C755.898315,563.834534 757.877075,565.059814 761.957336,565.042358 
	C783.100586,564.951721 804.244446,565.015076 825.388062,564.990417 
	C830.422852,564.984558 833.013611,562.538940 832.999756,557.993347 
	C832.985657,553.376343 830.482666,551.017029 825.463074,551.007202 
	C813.808899,550.984314 802.154602,551.000366 789.500488,551.000122 
z"/>
<path fill="#9B9B9B" opacity="1.000000" stroke="none" 
	d="
M956.161255,1489.098877 
	C961.931946,1464.228394 964.150757,1439.420166 962.777161,1414.385742 
	C960.104126,1365.670044 944.909668,1321.132935 916.613220,1281.319702 
	C882.476501,1233.288940 836.560791,1200.538940 782.239197,1178.895386 
	C758.917419,1169.603271 734.758972,1163.247559 710.204834,1158.015991 
	C728.819763,1158.015991 747.434631,1158.022217 766.049500,1158.014648 
	C800.715637,1158.000366 835.382202,1157.899902 870.047241,1158.087646 
	C873.292664,1158.105103 876.974976,1159.234131 879.702332,1161.005371 
	C929.904053,1193.606812 966.894287,1237.813110 992.871155,1291.396606 
	C1016.354431,1339.836792 1027.900513,1391.071655 1026.729492,1444.957520 
	C1026.086670,1474.537720 1021.152832,1503.456421 1011.236511,1531.429443 
	C1010.569641,1533.310669 1009.800476,1535.179321 1009.381958,1537.119263 
	C1008.789734,1539.864746 1010.116028,1540.901978 1012.903625,1541.148193 
	C1017.185608,1541.526367 1021.811218,1541.520996 1025.617432,1543.202759 
	C1048.428101,1553.281128 1070.242065,1565.088501 1087.179077,1583.981079 
	C1090.641235,1587.843140 1093.292725,1592.706421 1095.292114,1597.533081 
	C1097.587036,1603.073242 1095.725586,1607.597046 1090.202393,1609.851929 
	C1085.692505,1611.693237 1080.648438,1612.797363 1075.775391,1613.074707 
	C1058.361694,1614.065308 1041.833130,1609.460693 1025.618408,1603.826294 
	C998.007996,1594.232544 972.195740,1581.351807 951.128418,1560.535645 
	C946.915039,1556.372559 943.459412,1551.343872 940.229370,1546.342896 
	C939.222595,1544.784302 939.581055,1541.841553 940.208801,1539.808594 
	C945.396179,1523.008667 950.793701,1506.273560 956.161255,1489.098877 
z"/>
<path fill="#9B9B9B" opacity="1.000000" stroke="none" 
	d="
M1501.698120,1324.378418 
	C1485.335205,1278.278198 1460.044922,1238.522705 1423.647217,1206.143066 
	C1402.056274,1186.935669 1377.876343,1171.819824 1351.114258,1160.867798 
	C1349.432129,1160.179199 1347.763916,1159.456421 1344.791992,1158.201904 
	C1385.392944,1158.201904 1424.659424,1158.201904 1462.854980,1158.201904 
	C1465.680664,1160.887695 1467.752930,1163.551758 1470.426880,1165.290161 
	C1494.183960,1180.735596 1511.615356,1201.975098 1525.915283,1225.975586 
	C1551.754883,1269.343262 1566.060547,1316.726685 1573.977783,1366.257935 
	C1578.061279,1391.804932 1580.054077,1417.547852 1579.643066,1443.399292 
	C1579.187866,1472.036865 1576.404541,1500.464478 1569.187744,1528.293701 
	C1567.228516,1535.848999 1569.783325,1540.768066 1578.570068,1541.252441 
	C1600.949585,1542.486328 1622.859375,1546.708130 1642.603027,1558.148315 
	C1647.107300,1560.758179 1651.270752,1564.428955 1654.636597,1568.416992 
	C1659.345337,1573.996094 1659.182861,1580.301636 1653.459473,1584.785645 
	C1647.567871,1589.401611 1640.759399,1593.484131 1633.698608,1595.847046 
	C1615.515381,1601.932129 1596.572388,1603.100830 1577.456055,1602.305054 
	C1559.080566,1601.539917 1540.961548,1599.092285 1523.762451,1592.564087 
	C1515.160767,1589.299316 1507.111938,1584.376709 1499.220581,1579.539185 
	C1495.984741,1577.555542 1493.824707,1573.817261 1491.149414,1570.848633 
	C1523.828369,1490.058838 1529.273438,1408.111206 1501.698120,1324.378418 
z"/>
<path fill="#9B9B9B" opacity="1.000000" stroke="none" 
	d="
M1852.730713,1154.303345 
	C1854.386597,1170.109009 1849.914673,1184.273682 1843.901367,1197.974976 
	C1838.358032,1210.605835 1820.348999,1214.901611 1806.546509,1207.530884 
	C1798.167603,1203.056641 1789.951904,1190.697021 1791.362061,1178.404175 
	C1792.584229,1167.750977 1790.667603,1156.453125 1788.561768,1145.750488 
	C1777.578369,1089.929810 1754.943237,1038.351318 1729.435913,987.970520 
	C1705.247070,940.193726 1677.975220,894.247864 1643.754272,852.830139 
	C1634.661377,841.824890 1624.176270,831.973206 1614.433105,821.496521 
	C1613.431763,820.419861 1612.591553,818.686951 1612.593262,817.259705 
	C1612.620483,794.928040 1612.796265,772.596619 1612.954956,750.265137 
	C1612.959595,749.624084 1613.153076,748.984253 1613.325806,747.934631 
	C1620.880493,748.817749 1627.458740,751.801453 1633.695435,755.633423 
	C1647.562622,764.153320 1659.396362,775.105530 1670.527344,786.850220 
	C1703.604248,821.750671 1730.511963,861.192566 1755.068848,902.321655 
	C1782.670166,948.549438 1806.458984,996.651489 1825.593872,1047.021729 
	C1835.814941,1073.927856 1844.295654,1101.343506 1849.744629,1129.619995 
	C1851.279785,1137.585571 1851.744629,1145.757324 1852.730713,1154.303345 
z"/>
<path fill="#9B9B9B" opacity="1.000000" stroke="none" 
	d="
M325.466125,910.523071 
	C309.070190,951.946533 295.136749,993.810486 284.861481,1036.752441 
	C277.762512,1066.420044 271.759247,1096.386353 266.410034,1126.422852 
	C262.946899,1145.868896 261.603607,1165.658936 262.805420,1185.540649 
	C263.728363,1200.809326 258.799957,1208.758301 244.271591,1214.030396 
	C238.090530,1216.273438 230.953278,1217.042236 224.347244,1216.686523 
	C213.933548,1216.125488 207.638550,1206.509766 206.258423,1195.924927 
	C202.713318,1168.735352 203.710556,1141.505005 206.747879,1114.265991 
	C215.919266,1032.016113 237.993271,953.151428 269.427704,876.855530 
	C284.370819,840.586426 301.464294,805.264221 325.419861,773.814453 
	C335.527435,760.544800 346.023865,747.567810 361.517853,739.993774 
	C362.710693,739.410706 363.909790,738.815918 365.158447,738.375305 
	C375.488708,734.730530 377.716675,736.245422 377.605072,746.841003 
	C377.378723,768.330750 377.058594,789.819946 376.963501,811.310242 
	C376.945129,815.459839 376.190887,818.675720 373.155090,821.979309 
	C361.578705,834.576416 353.300293,849.436035 345.999603,864.762756 
	C338.866913,879.736877 332.407257,895.031616 325.466125,910.523071 
z"/>
<path fill="#9B9B9B" opacity="1.000000" stroke="none" 
	d="
M289.114075,1237.240723 
	C288.396851,1231.750854 288.523438,1226.434204 286.986816,1221.651978 
	C283.706451,1211.442871 276.592987,1205.305542 265.445618,1204.679688 
	C270.045929,1194.096436 279.144409,1190.338135 287.719452,1198.302490 
	C296.851715,1206.784546 302.190399,1217.147217 303.278046,1229.622314 
	C303.321259,1230.118164 303.484283,1230.689575 303.307648,1231.104980 
	C301.951508,1234.294312 301.339050,1238.546997 298.917480,1240.349609 
	C295.785767,1242.681030 292.012085,1240.308105 289.114075,1237.240723 
z"/>
<path fill="#979797" opacity="1.000000" stroke="none" 
	d="
M1777.150635,1244.566528 
	C1775.155029,1233.829224 1775.575928,1223.551025 1779.203613,1213.731079 
	C1781.148926,1208.465820 1784.501221,1203.720337 1787.595215,1198.050171 
	C1791.014526,1202.187988 1793.407837,1205.084229 1795.686279,1207.841431 
	C1790.130493,1220.343628 1788.345825,1232.864258 1792.454834,1246.094360 
	C1793.782104,1250.368164 1790.006348,1252.950317 1786.828003,1254.911011 
	C1783.890625,1256.723145 1781.671143,1254.733765 1780.292114,1252.288818 
	C1779.002319,1250.002197 1778.226807,1247.425415 1777.150635,1244.566528 
z"/>
<path fill="#979797" opacity="1.000000" stroke="none" 
	d="
M1872.839844,1242.092773 
	C1875.430176,1230.964355 1874.169678,1220.764648 1867.627686,1211.502686 
	C1863.456909,1205.597900 1858.142334,1201.329956 1849.601807,1200.743164 
	C1851.096069,1198.649536 1851.926147,1196.162476 1853.502197,1195.527832 
	C1858.124512,1193.666382 1862.705688,1190.627563 1867.647705,1196.106323 
	C1878.310669,1207.927856 1884.655151,1221.419800 1884.937744,1237.363525 
	C1884.992065,1240.421631 1882.743774,1243.520386 1881.557861,1246.600464 
	C1878.726562,1245.194946 1875.895142,1243.789551 1872.839844,1242.092773 
z"/>
<path fill="#979797" opacity="1.000000" stroke="none" 
	d="
M213.017853,1255.975586 
	C212.548416,1257.909790 212.286880,1259.623413 211.419281,1260.936768 
	C208.509872,1265.340942 205.368057,1265.195435 202.936218,1260.405151 
	C197.340317,1249.382324 197.604645,1237.687622 199.581604,1225.912842 
	C200.539047,1220.210449 201.811493,1214.542969 205.993195,1210.506226 
	C208.888870,1213.644287 211.650345,1216.636841 214.590820,1219.823364 
	C206.394043,1231.083374 209.871094,1243.337036 213.017853,1255.975586 
z"/>
<path fill="#979797" opacity="1.000000" stroke="none" 
	d="
M1842.134399,1218.948608 
	C1848.036133,1229.137207 1850.070435,1239.728271 1847.834351,1250.922485 
	C1847.245605,1253.869995 1847.032837,1258.210449 1842.259277,1257.702026 
	C1838.845581,1257.338379 1835.754150,1250.995483 1836.765625,1247.467163 
	C1839.423950,1238.194458 1835.865601,1230.171753 1831.589966,1222.330933 
	C1830.720337,1220.736450 1829.527344,1219.318237 1828.480103,1217.813843 
	C1836.497681,1213.383789 1837.008911,1213.416748 1842.134399,1218.948608 
z"/>
<path fill="#979797" opacity="1.000000" stroke="none" 
	d="
M376.975647,559.000000 
	C377.019165,541.043213 377.071198,523.586365 377.123230,506.129547 
	C378.020294,506.143372 378.917358,506.157196 379.814392,506.170990 
	C379.070618,581.230835 378.326843,656.290710 377.579376,731.724182 
	C375.207642,731.724182 373.109039,731.630127 371.023132,731.752319 
	C369.161835,731.861389 367.314484,732.209351 365.460999,732.451965 
	C365.404663,732.045593 365.348297,731.639282 365.291962,731.232910 
	C368.626770,730.662109 371.961578,730.091248 375.491608,729.487000 
	C379.012115,723.641785 377.349792,716.943787 377.341187,710.474060 
	C377.274292,660.149231 377.114929,609.824646 376.975647,559.000000 
z"/>
<path fill="#979797" opacity="1.000000" stroke="none" 
	d="
M256.891174,1230.313843 
	C256.935638,1237.619507 257.248810,1244.526978 256.785980,1251.382202 
	C256.593567,1254.232056 254.921204,1257.412109 250.952652,1256.636230 
	C247.556519,1255.972290 245.959290,1252.041016 246.968170,1248.180420 
	C249.229828,1239.525879 245.965790,1232.314453 240.843307,1225.652832 
	C239.953201,1224.495361 238.856476,1223.496704 237.660461,1222.216187 
	C241.763321,1220.701294 245.548828,1219.114624 249.468628,1218.000488 
	C250.354568,1217.748657 252.267639,1218.863403 252.743607,1219.825928 
	C254.345718,1223.066162 255.513107,1226.521606 256.891174,1230.313843 
z"/>
<path fill="#373737" opacity="1.000000" stroke="none" 
	d="
M1094.985718,1158.999756 
	C1026.012329,1158.999756 957.038879,1158.999756 888.065430,1158.999756 
	C888.018005,1158.502808 887.970520,1158.005737 887.923096,1157.508789 
	C888.900330,1157.373291 889.877502,1157.119751 890.854797,1157.119141 
	C957.790588,1157.080566 1024.726318,1157.060425 1091.662109,1157.055664 
	C1092.985229,1157.055542 1094.308350,1157.257080 1095.954956,1157.805420 
	C1095.847534,1158.497437 1095.416626,1158.748535 1094.985718,1158.999756 
z"/>
<path fill="#373737" opacity="1.000000" stroke="none" 
	d="
M1137.007080,1157.947632 
	C1138.739746,1157.639526 1140.472290,1157.063721 1142.205200,1157.061890 
	C1201.652222,1157.000977 1261.099365,1156.991333 1320.546387,1156.995117 
	C1322.225464,1156.995117 1323.904663,1157.222168 1325.583740,1157.343384 
	C1325.549927,1157.894653 1325.516113,1158.446045 1325.482178,1158.997314 
	C1262.897583,1158.997314 1200.312866,1158.997314 1137.277588,1158.672485 
	C1136.826782,1158.347656 1137.007080,1157.947632 1137.007080,1157.947632 
z"/>
<path fill="#979797" opacity="1.000000" stroke="none" 
	d="
M276.425476,1097.313965 
	C279.462158,1083.103638 282.377869,1069.304565 285.293610,1055.505493 
	C285.445251,1055.533081 285.596893,1055.560669 285.748535,1055.588257 
	C282.170868,1078.287354 278.462982,1100.966797 275.052063,1123.690918 
	C271.626709,1146.511475 270.209412,1169.516968 269.486847,1192.573975 
	C265.389587,1160.488159 271.142181,1129.128418 276.425476,1097.313965 
z"/>
<path fill="#373737" opacity="1.000000" stroke="none" 
	d="
M375.100525,960.000000 
	C375.100189,915.450745 375.100189,871.401550 375.100189,827.352295 
	C375.778778,827.355652 376.457336,827.359009 377.135925,827.362305 
	C376.315033,912.462219 375.494141,997.562134 374.673218,1082.662109 
	C374.815765,1082.661621 374.958282,1082.661133 375.100830,1082.660522 
	C375.100830,1041.940430 375.100830,1001.220215 375.100525,960.000000 
z"/>
<path fill="#373737" opacity="1.000000" stroke="none" 
	d="
M673.943970,1157.953857 
	C677.385132,1157.952271 680.336609,1157.952271 683.288147,1157.952271 
	C683.280884,1158.220215 683.273621,1158.488159 683.266418,1158.756104 
	C615.951355,1158.756104 548.636292,1158.756104 481.321228,1158.756104 
	C481.320312,1158.489258 481.319397,1158.222412 481.318512,1157.955566 
	C545.363770,1157.955566 609.409058,1157.955566 673.943970,1157.953857 
z"/>
<path fill="#373737" opacity="1.000000" stroke="none" 
	d="
M1612.983276,965.041321 
	C1612.983276,1006.614136 1612.983276,1048.186890 1612.983276,1089.759766 
	C1612.649658,1089.755127 1612.316040,1089.750610 1611.982422,1089.746094 
	C1611.982422,1048.469116 1611.982422,1007.192200 1612.235352,965.449768 
	C1612.488403,964.984314 1612.983276,965.041321 1612.983276,965.041321 
z"/>
<path fill="#979797" opacity="1.000000" stroke="none" 
	d="
M1784.999268,1168.063965 
	C1784.628174,1174.857056 1784.254517,1181.161133 1783.880859,1187.465210 
	C1783.180786,1187.455078 1782.480591,1187.445068 1781.780518,1187.434937 
	C1783.496704,1163.180542 1779.443237,1139.583252 1774.276489,1116.099243 
	C1779.751953,1132.884033 1784.048218,1149.885254 1784.999268,1168.063965 
z"/>
<path fill="#979797" opacity="1.000000" stroke="none" 
	d="
M1136.537842,1157.957520 
	C1137.007080,1157.947632 1136.826782,1158.347656 1136.805786,1158.565918 
	C1129.391113,1160.537109 1122.064209,1162.697266 1114.584106,1163.922485 
	C1107.800903,1165.033813 1101.553467,1162.044189 1095.165771,1159.325928 
	C1095.416626,1158.748535 1095.847534,1158.497437 1096.409668,1158.032959 
	C1109.716919,1157.868896 1122.892822,1157.918213 1136.537842,1157.957520 
z"/>
<path fill="#373737" opacity="1.000000" stroke="none" 
	d="
M1475.884521,1159.232056 
	C1473.894043,1159.119263 1472.301514,1158.887085 1470.709106,1158.654907 
	C1470.754639,1158.229126 1470.800049,1157.803223 1470.845581,1157.377441 
	C1495.372681,1157.377441 1519.899658,1157.377441 1544.426758,1157.377441 
	C1544.434326,1157.955811 1544.442017,1158.534302 1544.449585,1159.112671 
	C1521.727295,1159.112671 1499.004883,1159.112671 1475.884521,1159.232056 
z"/>
<path fill="#030303" opacity="1.000000" stroke="none" 
	d="
M1612.991455,964.568665 
	C1612.983276,965.041321 1612.488403,964.984314 1612.239258,964.979492 
	C1611.990234,920.052063 1611.990234,875.129517 1611.990234,830.206909 
	C1612.326660,830.206360 1612.663086,830.205811 1612.999512,830.205200 
	C1612.999512,874.835510 1612.999512,919.465759 1612.991455,964.568665 
z"/>
<path fill="#979797" opacity="1.000000" stroke="none" 
	d="
M1511.012573,1453.288574 
	C1510.995239,1435.680054 1510.995239,1418.483887 1510.995239,1401.287598 
	C1511.259888,1401.284058 1511.524658,1401.280518 1511.789307,1401.276978 
	C1511.789307,1419.983521 1511.789307,1438.690063 1511.789307,1457.396606 
	C1511.660645,1457.389771 1511.532104,1457.382935 1511.403442,1457.376099 
	C1511.278931,1456.151001 1511.154419,1454.925903 1511.012573,1453.288574 
z"/>
<path fill="#9B9B9B" opacity="1.000000" stroke="none" 
	d="
M1576.189941,1529.030273 
	C1577.285278,1524.514038 1578.222290,1520.384033 1579.159424,1516.253906 
	C1579.307495,1516.267578 1579.455688,1516.281250 1579.603760,1516.294922 
	C1579.603760,1522.089722 1579.603760,1527.884521 1579.603760,1533.878418 
	C1578.272095,1533.878418 1576.848145,1533.878418 1575.116577,1533.878418 
	C1575.457886,1532.214600 1575.744873,1530.815552 1576.189941,1529.030273 
z"/>
<path fill="#979797" opacity="1.000000" stroke="none" 
	d="
M197.983459,1186.726685 
	C197.981979,1181.110229 197.981979,1175.963257 197.981979,1170.816406 
	C198.206039,1170.814087 198.430099,1170.811768 198.654175,1170.809570 
	C199.308914,1179.127441 199.963669,1187.445435 200.618423,1195.763306 
	C200.193787,1195.810791 199.769150,1195.858276 199.344498,1195.905762 
	C198.891312,1193.002563 198.438110,1190.099487 197.983459,1186.726685 
z"/>
<path fill="#030303" opacity="1.000000" stroke="none" 
	d="
M525.000732,570.978027 
	C640.314697,571.498108 755.128784,572.042175 869.943054,572.530090 
	C1031.588989,573.217041 1193.234985,573.882019 1354.881104,574.510498 
	C1392.541382,574.656921 1430.202271,574.627197 1467.862915,574.657959 
	C1475.875732,574.664551 1476.818237,575.781189 1476.779297,585.052917 
	C1476.495850,652.530029 1476.215332,720.007141 1475.971680,787.484375 
	C1475.722656,856.475403 1475.484497,925.466492 1475.322998,994.457703 
	C1475.295288,1006.275757 1475.636963,1018.095642 1475.889038,1029.912842 
	C1475.973511,1033.865234 1474.895874,1036.084595 1470.268677,1036.068481 
	C1371.792358,1035.724121 1273.315796,1035.308105 1174.838989,1035.257080 
	C962.859985,1035.147339 750.880859,1035.235840 538.901794,1035.243042 
	C528.249023,1035.243408 517.595886,1035.293823 506.943665,1035.216064 
	C501.717163,1035.177979 499.798126,1033.107300 499.806915,1027.404907 
	C499.850922,998.917480 499.734375,970.427124 500.103577,941.943420 
	C501.114380,863.962463 502.409271,785.985291 503.449524,708.004700 
	C503.909424,673.528503 504.006531,639.047546 504.310822,604.569153 
	C504.395966,594.919250 504.745667,585.270569 504.739349,575.621521 
	C504.737061,572.108521 506.157806,570.845520 509.503815,570.925537 
	C514.500427,571.044983 519.501587,570.969482 525.000732,570.978027 
M1466.944336,843.500000 
	C1466.944336,756.924683 1466.944336,670.349426 1466.944336,583.501221 
	C1466.282227,583.429260 1465.319824,583.233582 1464.357422,583.233154 
	C1430.372314,583.219299 1396.386719,583.321228 1362.402100,583.206177 
	C1281.752075,582.933167 1201.102417,582.558167 1120.452637,582.225159 
	C1039.802979,581.892090 959.153381,581.545715 878.503662,581.230896 
	C781.523254,580.852356 684.542664,580.496155 587.562134,580.153320 
	C583.085144,580.137512 578.606812,580.454712 574.130005,580.432861 
	C554.646423,580.337585 535.162720,580.213074 515.680237,579.994019 
	C512.731689,579.960876 511.908752,581.221069 512.079041,583.905518 
	C512.384460,588.718689 512.742432,593.542114 512.725037,598.359985 
	C512.600098,633.010620 512.542358,667.662659 512.162415,702.310913 
	C511.647186,749.295105 510.839447,796.275940 510.201630,843.258789 
	C509.475586,896.738953 508.787750,950.219666 508.112823,1003.700500 
	C508.020966,1010.978760 508.100159,1018.259094 508.100159,1025.990479 
	C510.883698,1025.990479 513.011780,1025.990479 515.139832,1025.990479 
	C771.430603,1025.990601 1027.721313,1025.990601 1284.012085,1025.990967 
	C1343.000977,1025.991089 1401.989990,1025.956909 1460.978638,1026.065186 
	C1465.227905,1026.072876 1467.129883,1025.479492 1466.974731,1020.427368 
	C1466.540405,1006.288696 1466.771240,992.128845 1466.785156,977.977356 
	C1466.828613,933.484924 1466.893188,888.992432 1466.944336,843.500000 
z"/>
<path fill="#010101" opacity="1.000000" stroke="none" 
	d="
M888.000000,484.001526 
	C888.000000,491.137207 888.000000,497.773132 888.000000,505.023376 
	C900.766357,505.023376 913.201721,504.997803 925.636658,505.054779 
	C927.244995,505.062164 929.535522,504.917999 930.322144,505.848358 
	C932.200195,508.069702 934.930664,511.225586 934.466248,513.393372 
	C933.726257,516.847473 931.082458,520.111755 926.309204,520.045166 
	C915.645935,519.896301 904.979248,519.999512 894.313904,519.999939 
	C892.506226,520.000061 890.698486,520.000000 888.424072,520.000000 
	C888.424072,528.434143 888.424072,536.479065 888.424072,545.009888 
	C902.401306,545.009888 916.351929,545.010315 930.302551,545.009460 
	C932.135620,545.009338 933.984680,545.158752 935.799011,544.972534 
	C943.998230,544.131348 946.317749,549.447021 944.705933,556.383606 
	C944.255066,558.324097 940.455933,560.762146 938.157959,560.798950 
	C916.999512,561.137817 895.833557,560.996155 874.669739,561.002075 
	C871.312622,561.002991 869.980347,559.250183 869.983643,556.009338 
	C870.016907,523.682312 870.050110,491.355164 869.968201,459.028351 
	C869.958008,454.993591 871.989746,453.087738 875.541199,453.069550 
	C898.370972,452.952484 921.201965,452.949738 944.031860,453.054962 
	C948.260925,453.074463 950.230713,455.999176 949.989868,461.049774 
	C949.800537,465.020599 947.720886,466.982758 943.681152,466.976227 
	C925.365723,466.946625 907.050232,466.963287 888.000000,466.963287 
	C888.000000,472.649017 888.000000,478.075409 888.000000,484.001526 
z"/>
<path fill="#010101" opacity="1.000000" stroke="none" 
	d="
M629.000000,552.916748 
	C628.999939,524.602661 628.996094,496.775757 629.001892,468.948853 
	C629.004150,458.096283 632.111328,455.005585 643.000305,455.001282 
	C656.164001,454.996063 669.329773,455.149567 682.490784,454.962250 
	C699.043884,454.726685 706.638123,464.212036 709.993896,479.699677 
	C712.663391,492.020233 707.939331,501.934662 702.840027,511.443939 
	C706.650818,515.929016 710.991882,519.550842 713.408020,524.177795 
	C719.241150,535.348450 716.240723,556.923340 705.702087,562.304443 
	C698.893982,565.780762 690.591614,567.320740 682.847168,567.760376 
	C668.230957,568.590088 653.534058,568.003052 638.870728,567.998596 
	C632.543335,567.996643 629.223450,564.773926 629.009033,558.402527 
	C628.953003,556.738098 629.000183,555.070251 629.000000,552.916748 
M697.969238,522.458496 
	C694.588196,518.882568 690.577515,517.654175 685.566162,517.884033 
	C676.593994,518.295654 667.589355,518.000000 658.598328,518.000000 
	C653.168457,518.000000 647.738647,518.000000 642.308472,518.000000 
	C642.308472,531.664856 642.308472,544.711853 642.308472,557.995361 
	C658.154419,557.995361 673.625732,558.182007 689.085083,557.834656 
	C692.103333,557.766785 695.650208,556.299316 697.965271,554.321045 
	C706.493164,547.033997 706.520752,529.496399 697.969238,522.458496 
M658.501892,506.999786 
	C668.496643,506.999786 678.495544,506.833496 688.484314,507.077698 
	C692.768311,507.182495 695.070190,505.102112 697.168457,501.812439 
	C704.736572,489.946991 700.902649,477.779022 693.254822,468.971558 
	C692.051697,467.586029 689.931213,466.204926 688.215637,466.180695 
	C672.950012,465.965057 657.680054,466.055206 642.265076,466.055206 
	C642.265076,479.898529 642.265076,493.283478 642.265076,507.000671 
	C647.565613,507.000671 652.534546,507.000671 658.501892,506.999786 
z"/>
<path fill="#010101" opacity="1.000000" stroke="none" 
	d="
M984.000000,464.148560 
	C984.002014,455.002167 984.002014,455.000824 992.601501,455.000305 
	C1012.914246,454.999115 1033.227051,454.960175 1053.539673,455.018921 
	C1061.271973,455.041290 1064.996460,459.531433 1062.037354,465.852631 
	C1061.099731,467.855377 1057.605347,469.778717 1055.246582,469.821045 
	C1037.102051,470.146637 1018.949036,470.000153 1000.390503,470.000153 
	C1000.390503,481.176514 1000.390503,492.229950 1000.390503,503.883392 
	C1011.290710,503.883392 1022.370422,503.885651 1033.450195,503.881165 
	C1035.280396,503.880432 1037.126099,503.690125 1038.937744,503.865509 
	C1043.355347,504.293243 1046.189453,507.287567 1046.086548,511.201691 
	C1045.968628,515.695068 1042.864868,518.925415 1038.226562,518.967407 
	C1027.571167,519.064026 1016.914185,518.999329 1006.257874,518.999939 
	C1004.431213,519.000061 1002.604553,519.000000 1000.373901,519.000000 
	C1000.373901,527.849182 1000.373901,536.547546 1000.373901,545.756714 
	C1002.223755,545.840271 1003.992432,545.987000 1005.761230,545.989380 
	C1019.917419,546.008545 1034.073730,545.979248 1048.229736,546.029663 
	C1049.839478,546.035400 1051.963379,545.875854 1052.952759,546.776978 
	C1055.230469,548.851379 1058.054077,551.303406 1058.620728,554.025940 
	C1059.289185,557.236755 1053.798706,560.937500 1049.236694,560.963867 
	C1034.584839,561.048523 1019.931946,560.977966 1005.279480,560.972046 
	C1002.285095,560.970825 999.290527,560.978638 996.296265,561.002441 
	C985.797974,561.085876 984.011108,559.361023 984.008667,549.061096 
	C984.001831,520.916748 984.002380,492.772400 984.000000,464.148560 
z"/>
<path fill="#030303" opacity="1.000000" stroke="none" 
	d="
M1213.174438,500.308319 
	C1215.552246,488.572998 1220.068115,478.427704 1228.171021,469.941010 
	C1242.985962,454.424225 1266.716309,452.273102 1284.141235,465.078125 
	C1310.782593,484.656097 1317.257690,525.979492 1297.884888,552.789307 
	C1279.394897,578.377686 1244.582031,577.556885 1225.009155,550.900635 
	C1214.017700,535.931213 1210.475220,519.022888 1213.174438,500.308319 
M1227.058350,520.262085 
	C1229.000732,531.987915 1233.956665,542.083618 1243.086548,549.928223 
	C1256.904053,561.800476 1276.404907,559.242859 1286.682373,544.205139 
	C1299.154541,525.956360 1297.434326,498.994812 1282.741455,482.431458 
	C1267.194824,464.905701 1243.868286,467.213409 1232.365845,487.533051 
	C1226.753540,497.447601 1225.283936,508.187561 1227.058350,520.262085 
z"/>
<path fill="#030303" opacity="1.000000" stroke="none" 
	d="
M1182.854858,483.237244 
	C1189.844360,499.897156 1184.413452,515.052063 1168.683228,523.120056 
	C1156.248169,529.498047 1143.154297,529.959412 1129.756836,526.975037 
	C1128.003052,526.584351 1126.259888,526.145569 1124.006714,525.608704 
	C1124.006714,532.233948 1124.332275,538.386963 1123.896606,544.485657 
	C1123.586548,548.825745 1122.528076,553.174805 1121.284790,557.365906 
	C1120.315430,560.633118 1117.942871,562.655640 1114.100586,561.843018 
	C1109.991211,560.973755 1107.628906,558.529846 1107.641479,554.268005 
	C1107.727173,525.314819 1107.864868,496.361816 1107.993774,467.408752 
	C1108.027466,459.841309 1109.591675,457.050354 1115.801025,456.958710 
	C1131.248291,456.730621 1146.845337,456.225739 1161.297607,463.352661 
	C1170.312500,467.798340 1177.828857,473.899353 1182.854858,483.237244 
M1140.318604,515.281494 
	C1148.112549,516.064148 1155.612793,515.052368 1162.601074,511.369690 
	C1174.454224,505.123322 1176.595947,493.356781 1167.227051,483.753998 
	C1156.185547,472.436890 1142.335693,469.002350 1126.975586,471.047974 
	C1125.876709,471.194305 1124.155273,472.950806 1124.139038,473.981018 
	C1123.941895,486.431274 1124.011230,498.885742 1124.011230,511.961304 
	C1129.127686,513.036621 1134.288818,514.121277 1140.318604,515.281494 
z"/>
<path fill="#010101" opacity="1.000000" stroke="none" 
	d="
M790.000427,551.000366 
	C802.154602,551.000366 813.808899,550.984314 825.463074,551.007202 
	C830.482666,551.017029 832.985657,553.376343 832.999756,557.993347 
	C833.013611,562.538940 830.422852,564.984558 825.388062,564.990417 
	C804.244446,565.015076 783.100586,564.951721 761.957336,565.042358 
	C757.877075,565.059814 755.898315,563.834534 755.916260,559.333069 
	C756.042969,527.537964 755.988525,495.742126 756.000244,463.946533 
	C756.002625,457.577118 758.200928,454.785217 763.155701,454.786255 
	C768.419006,454.787384 770.995544,457.779968 770.997253,463.966309 
	C771.004761,490.937561 771.000244,517.908813 771.000000,544.880066 
	C770.999939,546.694641 771.000000,548.509216 771.000000,551.000122 
	C777.321350,551.000122 783.410889,551.000122 790.000427,551.000366 
z"/>
<path fill="#67AD5B" opacity="1.000000" stroke="none" 
	d="
M1466.947021,844.000000 
	C1466.893188,888.992432 1466.828613,933.484924 1466.785156,977.977356 
	C1466.771240,992.128845 1466.540405,1006.288696 1466.974731,1020.427368 
	C1467.129883,1025.479492 1465.227905,1026.072876 1460.978638,1026.065186 
	C1401.989990,1025.956909 1343.000977,1025.991089 1284.012085,1025.990967 
	C1027.721313,1025.990601 771.430603,1025.990601 515.139832,1025.990479 
	C513.011780,1025.990479 510.883698,1025.990479 508.100159,1025.990479 
	C508.100159,1018.259094 508.020966,1010.978760 508.112823,1003.700500 
	C508.787750,950.219666 509.475586,896.738953 510.201630,843.258789 
	C510.839447,796.275940 511.647186,749.295105 512.162415,702.310913 
	C512.542358,667.662659 512.600098,633.010620 512.725037,598.359985 
	C512.742432,593.542114 512.384460,588.718689 512.079041,583.905518 
	C511.908752,581.221069 512.731689,579.960876 515.680237,579.994019 
	C535.162720,580.213074 554.646423,580.337585 574.130005,580.432861 
	C578.606812,580.454712 583.085144,580.137512 587.562134,580.153320 
	C684.542664,580.496155 781.523254,580.852356 878.503662,581.230896 
	C959.153381,581.545715 1039.802979,581.892090 1120.452637,582.225159 
	C1201.102417,582.558167 1281.752075,582.933167 1362.402100,583.206177 
	C1396.386719,583.321228 1430.372314,583.219299 1464.357422,583.233154 
	C1465.319824,583.233582 1466.282227,583.429260 1466.944336,583.501221 
	C1466.944336,670.349426 1466.944336,756.924683 1466.947021,844.000000 
M893.048462,931.962585 
	C893.881653,933.327881 894.550720,934.832458 895.572937,936.037415 
	C909.228333,952.134888 927.945801,957.112488 947.741699,958.869751 
	C962.169983,960.150513 976.506897,958.308411 990.397949,953.988892 
	C1002.884094,950.106201 1015.065613,945.515076 1025.798706,936.574158 
	C1027.075439,935.516602 1028.473877,934.575195 1029.609985,933.383545 
	C1042.100220,920.282349 1050.552246,904.963745 1053.883301,887.133850 
	C1055.323364,879.427063 1055.665283,871.515137 1056.602295,862.801270 
	C992.924866,862.801270 930.724060,862.801270 867.676880,862.801270 
	C868.157471,869.574036 868.203064,875.728882 869.094788,881.758606 
	C871.894653,900.691040 879.209290,917.551941 893.048462,931.962585 
M1244.803589,624.718262 
	C1235.468262,623.215942 1226.148926,620.530396 1216.795166,620.404907 
	C1159.572998,619.636963 1115.433105,669.787659 1122.885010,726.507141 
	C1129.553711,777.264771 1175.887939,813.601501 1226.456299,807.731018 
	C1270.839844,802.578491 1305.044434,767.563049 1309.694336,722.519958 
	C1314.068115,680.150330 1287.088135,639.121094 1244.803589,624.718262 
M831.876099,746.382629 
	C839.701477,714.207214 834.550781,684.885620 812.274841,659.586426 
	C788.109375,632.141357 757.577148,621.476746 721.994629,628.895569 
	C673.878052,638.927612 643.392578,681.877441 648.002441,730.888000 
	C652.929321,783.270020 704.102173,822.594177 755.765503,813.409485 
	C794.233765,806.570557 819.213562,783.957886 831.876099,746.382629 
z"/>
<path fill="#9B9B9B" opacity="1.000000" stroke="none" 
	d="
M698.228394,522.722046 
	C706.520752,529.496399 706.493164,547.033997 697.965271,554.321045 
	C695.650208,556.299316 692.103333,557.766785 689.085083,557.834656 
	C673.625732,558.182007 658.154419,557.995361 642.308472,557.995361 
	C642.308472,544.711853 642.308472,531.664856 642.308472,518.000000 
	C647.738647,518.000000 653.168457,518.000000 658.598328,518.000000 
	C667.589355,518.000000 676.593994,518.295654 685.566162,517.884033 
	C690.577515,517.654175 694.588196,518.882568 698.228394,522.722046 
z"/>
<path fill="#9B9B9B" opacity="1.000000" stroke="none" 
	d="
M658.002686,507.000244 
	C652.534546,507.000671 647.565613,507.000671 642.265076,507.000671 
	C642.265076,493.283478 642.265076,479.898529 642.265076,466.055206 
	C657.680054,466.055206 672.950012,465.965057 688.215637,466.180695 
	C689.931213,466.204926 692.051697,467.586029 693.254822,468.971558 
	C700.902649,477.779022 704.736572,489.946991 697.168457,501.812439 
	C695.070190,505.102112 692.768311,507.182495 688.484314,507.077698 
	C678.495544,506.833496 668.496643,506.999786 658.002686,507.000244 
z"/>
<path fill="#9B9B9B" opacity="1.000000" stroke="none" 
	d="
M1226.992188,519.831116 
	C1225.283936,508.187561 1226.753540,497.447601 1232.365845,487.533051 
	C1243.868286,467.213409 1267.194824,464.905701 1282.741455,482.431458 
	C1297.434326,498.994812 1299.154541,525.956360 1286.682373,544.205139 
	C1276.404907,559.242859 1256.904053,561.800476 1243.086548,549.928223 
	C1233.956665,542.083618 1229.000732,531.987915 1226.992188,519.831116 
z"/>
<path fill="#9B9B9B" opacity="1.000000" stroke="none" 
	d="
M1139.884277,515.243774 
	C1134.288818,514.121277 1129.127686,513.036621 1124.011230,511.961304 
	C1124.011230,498.885742 1123.941895,486.431274 1124.139038,473.981018 
	C1124.155273,472.950806 1125.876709,471.194305 1126.975586,471.047974 
	C1142.335693,469.002350 1156.185547,472.436890 1167.227051,483.753998 
	C1176.595947,493.356781 1174.454224,505.123322 1162.601074,511.369690 
	C1155.612793,515.052368 1148.112549,516.064148 1139.884277,515.243774 
z"/>
<path fill="#020202" opacity="1.000000" stroke="none" 
	d="
M1245.178955,624.849487 
	C1287.088135,639.121094 1314.068115,680.150330 1309.694336,722.519958 
	C1305.044434,767.563049 1270.839844,802.578491 1226.456299,807.731018 
	C1175.887939,813.601501 1129.553711,777.264771 1122.885010,726.507141 
	C1115.433105,669.787659 1159.572998,619.636963 1216.795166,620.404907 
	C1226.148926,620.530396 1235.468262,623.215942 1245.178955,624.849487 
M1267.465820,648.507446 
	C1264.460083,647.474670 1261.520142,645.848999 1258.437744,645.506897 
	C1240.749878,643.543823 1226.215576,649.640686 1216.235107,664.389832 
	C1206.795532,678.339661 1205.603271,693.359680 1213.684448,709.313232 
	C1219.454346,720.546814 1227.813354,729.144226 1239.798584,733.505859 
	C1264.633179,742.543579 1290.991821,728.362854 1297.573608,702.676025 
	C1303.376221,680.029175 1289.560791,654.981689 1267.465820,648.507446 
M1162.027588,696.382080 
	C1154.211426,696.183044 1149.299194,698.815552 1146.943970,704.465576 
	C1143.907593,711.749695 1147.574341,720.291931 1154.845093,722.872864 
	C1162.026245,725.421936 1170.809814,720.545532 1173.221924,712.670532 
	C1175.514282,705.186584 1171.414185,698.833679 1162.027588,696.382080 
M1211.229370,755.611572 
	C1209.812500,746.325867 1203.312744,740.386475 1195.803101,741.515381 
	C1189.176758,742.511597 1184.460571,748.131287 1184.718018,754.724243 
	C1184.988403,761.649841 1191.177856,768.011108 1198.118164,768.496338 
	C1204.895996,768.970215 1209.968140,764.277161 1211.229370,755.611572 
z"/>
<path fill="#020202" opacity="1.000000" stroke="none" 
	d="
M831.775024,746.770996 
	C819.213562,783.957886 794.233765,806.570557 755.765503,813.409485 
	C704.102173,822.594177 652.929321,783.270020 648.002441,730.888000 
	C643.392578,681.877441 673.878052,638.927612 721.994629,628.895569 
	C757.577148,621.476746 788.109375,632.141357 812.274841,659.586426 
	C834.550781,684.885620 839.701477,714.207214 831.775024,746.770996 
M783.246582,644.949402 
	C766.763672,638.368530 742.106079,641.909607 729.198425,659.052185 
	C718.748291,672.930908 715.996704,691.670776 724.639404,706.660217 
	C736.109863,726.554077 757.315735,734.520691 781.715332,727.962585 
	C786.834595,725.305542 792.611450,723.441528 796.950378,719.843445 
	C810.188293,708.865845 815.450562,694.441040 811.967651,677.494934 
	C808.718201,661.685242 799.390869,650.706726 783.246582,644.949402 
M673.563232,732.759033 
	C678.807312,739.010986 686.105164,740.696228 692.656250,737.168030 
	C697.888367,734.350159 700.412048,728.437012 698.813843,722.740784 
	C697.146851,716.799377 690.962158,712.705566 684.134949,713.024353 
	C674.334656,713.481995 669.227051,722.379395 673.563232,732.759033 
M748.399597,761.248108 
	C746.469055,759.246338 744.831787,756.777405 742.545776,755.341675 
	C738.027283,752.503662 733.111572,752.249146 728.477295,755.342773 
	C724.411682,758.056763 722.546326,762.008118 722.960022,766.870605 
	C723.615051,774.571167 731.693115,780.234924 739.616760,778.665955 
	C747.456726,777.113586 751.057129,770.502808 748.399597,761.248108 
z"/>
<path fill="#020202" opacity="1.000000" stroke="none" 
	d="
M892.912903,931.289307 
	C879.209290,917.551941 871.894653,900.691040 869.094788,881.758606 
	C868.203064,875.728882 868.157471,869.574036 867.676880,862.801270 
	C930.724060,862.801270 992.924866,862.801270 1056.602295,862.801270 
	C1055.665283,871.515137 1055.323364,879.427063 1053.883301,887.133850 
	C1050.552246,904.963745 1042.100220,920.282349 1029.609985,933.383545 
	C1028.473877,934.575195 1027.075439,935.516602 1025.421875,936.374634 
	C1011.692932,900.340210 975.280579,880.677795 939.518188,890.311768 
	C917.366516,896.279236 902.180908,910.501526 892.912903,931.289307 
z"/>
<path fill="#F989A5" opacity="1.000000" stroke="none" 
	d="
M892.980713,931.625977 
	C902.180908,910.501526 917.366516,896.279236 939.518188,890.311768 
	C975.280579,880.677795 1011.692932,900.340210 1025.144287,936.531799 
	C1015.065613,945.515076 1002.884094,950.106201 990.397949,953.988892 
	C976.506897,958.308411 962.169983,960.150513 947.741699,958.869751 
	C927.945801,957.112488 909.228333,952.134888 895.572937,936.037415 
	C894.550720,934.832458 893.881653,933.327881 892.980713,931.625977 
z"/>
<path fill="#FAFAFA" opacity="1.000000" stroke="none" 
	d="
M1267.974365,649.013000 
	C1289.560791,654.981689 1303.376221,680.029175 1297.573608,702.676025 
	C1290.991821,728.362854 1264.633179,742.543579 1239.798584,733.505859 
	C1227.813354,729.144226 1219.454346,720.546814 1213.735962,708.574646 
	C1212.853760,703.149536 1211.230835,698.482483 1211.097412,693.773315 
	C1210.208008,662.329773 1237.696289,640.816345 1267.974365,649.013000 
z"/>
<path fill="#F3F3F3" opacity="1.000000" stroke="none" 
	d="
M1162.423340,696.466980 
	C1171.414185,698.833679 1175.514282,705.186584 1173.221924,712.670532 
	C1170.809814,720.545532 1162.026245,725.421936 1154.845093,722.872864 
	C1147.574341,720.291931 1143.907593,711.749695 1146.943970,704.465576 
	C1149.299194,698.815552 1154.211426,696.183044 1162.423340,696.466980 
z"/>
<path fill="#F3F3F3" opacity="1.000000" stroke="none" 
	d="
M1211.229736,755.987976 
	C1209.968140,764.277161 1204.895996,768.970215 1198.118164,768.496338 
	C1191.177856,768.011108 1184.988403,761.649841 1184.718018,754.724243 
	C1184.460571,748.131287 1189.176758,742.511597 1195.803101,741.515381 
	C1203.312744,740.386475 1209.812500,746.325867 1211.229736,755.987976 
z"/>
<path fill="#CFCFCF" opacity="1.000000" stroke="none" 
	d="
M1267.720093,648.760254 
	C1237.696289,640.816345 1210.208008,662.329773 1211.097412,693.773315 
	C1211.230835,698.482483 1212.853760,703.149536 1213.658203,708.244995 
	C1205.603271,693.359680 1206.795532,678.339661 1216.235107,664.389832 
	C1226.215576,649.640686 1240.749878,643.543823 1258.437744,645.506897 
	C1261.520142,645.848999 1264.460083,647.474670 1267.720093,648.760254 
z"/>
<path fill="#FBFBFB" opacity="1.000000" stroke="none" 
	d="
M780.958801,727.818237 
	C757.315735,734.520691 736.109863,726.554077 724.639404,706.660217 
	C715.996704,691.670776 718.748291,672.930908 729.198425,659.052185 
	C742.106079,641.909607 766.763672,638.368530 783.653992,645.447266 
	C784.860291,646.515625 785.607422,647.182556 786.465698,647.642090 
	C801.397888,655.637451 808.436523,668.859253 808.795105,685.031250 
	C809.171326,702.001038 801.343567,715.259949 786.381409,723.934326 
	C784.466858,725.044373 782.761230,726.514771 780.958801,727.818237 
z"/>
<path fill="#FAFAFA" opacity="1.000000" stroke="none" 
	d="
M673.367737,732.440186 
	C669.227051,722.379395 674.334656,713.481995 684.134949,713.024353 
	C690.962158,712.705566 697.146851,716.799377 698.813843,722.740784 
	C700.412048,728.437012 697.888367,734.350159 692.656250,737.168030 
	C686.105164,740.696228 678.807312,739.010986 673.367737,732.440186 
z"/>
<path fill="#F3F3F3" opacity="1.000000" stroke="none" 
	d="
M748.564148,761.591675 
	C751.057129,770.502808 747.456726,777.113586 739.616760,778.665955 
	C731.693115,780.234924 723.615051,774.571167 722.960022,766.870605 
	C722.546326,762.008118 724.411682,758.056763 728.477295,755.342773 
	C733.111572,752.249146 738.027283,752.503662 742.545776,755.341675 
	C744.831787,756.777405 746.469055,759.246338 748.564148,761.591675 
z"/>
<path fill="#CFCFCF" opacity="1.000000" stroke="none" 
	d="
M781.337036,727.890381 
	C782.761230,726.514771 784.466858,725.044373 786.381409,723.934326 
	C801.343567,715.259949 809.171326,702.001038 808.795105,685.031250 
	C808.436523,668.859253 801.397888,655.637451 786.465698,647.642090 
	C785.607422,647.182556 784.860291,646.515625 783.998535,645.618835 
	C799.390869,650.706726 808.718201,661.685242 811.967651,677.494934 
	C815.450562,694.441040 810.188293,708.865845 796.950378,719.843445 
	C792.611450,723.441528 786.834595,725.305542 781.337036,727.890381 
z"/>
</svg>